<svg width="128" height="128" viewBox="0 0 128 128" fill="none" xmlns="http://www.w3.org/2000/svg">
<rect width="128" height="128" rx="25" fill="#111111"/>
<path d="M32.63 57.892C32.63 55.656 35.038 53.85 38.564 53.85C43.208 53.85 46.39 56.774 47.766 57.72C51.808 60.3 55.076 59.698 57.484 56.774C59.978 53.764 59.892 50.152 55.85 47.056C52.926 44.562 46.562 41.81 39.51 41.81C28.502 41.81 19.128 48.088 19.128 59.354C19.128 68.642 24.804 73.286 35.64 76.124C44.326 78.618 47.852 79.994 47.852 82.746C47.852 84.982 45.874 87.39 41.144 87.39C35.296 87.39 30.996 83.95 29.19 82.66C24.976 80.08 21.794 80.252 19.214 83.09C17.064 85.584 16.376 89.368 19.73 92.636C22.568 95.388 30.136 99.688 40.112 99.688C52.754 99.688 61.612 92.55 61.612 81.886C61.612 70.878 52.496 66.406 41.918 63.654C35.554 61.934 32.63 60.644 32.63 57.892ZM103.393 42.498H70.9712C66.9292 42.498 64.0912 45.336 64.0912 49.034C64.0912 52.732 66.9292 55.484 70.9712 55.484H80.3452V91.862C80.3452 95.904 83.1832 99 87.2252 99C91.2672 99 94.1052 95.904 94.1052 91.862V55.484H103.393C107.435 55.484 110.273 52.732 110.273 49.034C110.273 45.336 107.435 42.498 103.393 42.498Z" fill="#CCCCCC"/>
</svg>
